/* XPM */
static char *_281668269776[] = {
/* columns rows colors chars-per-pixel */
"100 100 76 1 ",
"  c #000000",
". c #0A0A0A",
"X c #0F0F0F",
"o c #101010",
"O c #121212",
"+ c #161616",
"@ c #1C1C1C",
"# c #262626",
"$ c #2A2A2A",
"% c #303030",
"& c #393939",
"* c #3F3F3F",
"= c #404040",
"- c #494949",
"; c #4F4F4F",
": c #535353",
"> c #5F5F5F",
", c #707070",
"< c #767676",
"1 c #EDCF72",
"2 c #EDCF73",
"3 c #EDD074",
"4 c #EDD075",
"5 c #EED178",
"6 c #EED179",
"7 c #EED27C",
"8 c #EFD37E",
"9 c #898989",
"0 c #919191",
"q c #A1A1A1",
"w c #B2B2B2",
"e c #BCBCBC",
"r c #EFD480",
"t c #F0D686",
"y c #F0D788",
"u c #F0D78B",
"i c #F0D88D",
"p c #F1DA92",
"a c #F1DA93",
"s c #F1DB95",
"d c #F2DD9C",
"f c #F2DE9D",
"g c #F3DE9F",
"h c #F3DFA2",
"j c #F3E0A3",
"k c #F3E0A4",
"l c #F4E2A9",
"z c #F4E2AA",
"x c #F5E3AD",
"c c #F5E5B3",
"v c #F6E6B5",
"b c #F6E6B7",
"n c #F6E7BA",
"m c #F7E8BD",
"M c #C1C1C1",
"N c #DDDDDD",
"B c #F7EAC1",
"V c #F8EBC6",
"C c #F8EDCB",
"Z c #F9EECD",
"A c #F9F0D2",
"S c #FAF1D7",
"D c #FAF2DA",
"F c #FAF3DB",
"G c #FBF3DC",
"H c #ECECEC",
"J c #EDEDED",
"K c #FBF5E2",
"L c #FCF6E5",
"P c #FDF8EB",
"I c #FDF9EE",
"U c #F6F6F6",
"Y c #FDFBF2",
"T c #FEFCF6",
"R c #FEFDFA",
"E c #FCFCFC",
/* pixels */
"                                                   11111111111111111111111111111111111111111111jCYEE",
"                                                   11111111111111111111111111111111111111111111111GE",
"                                                   111111111111111111111111111111111111111111111113G",
"                                                   1111111111111111111111111111111111111111111111333",
"                                                   1111111111111111111111111111111111111111111111111",
"                                                   1111111111111111111111111111111111111111111111111",
"                                                   1111111111111111111111111111111111111111111111111",
"                                                   1111111111111111111111111111111111111111111111111",
"                                                   1111111111111111111111111111111111111111111111111",
"                                                   1111111111111111111111111111111111111111111111111",
"                                                   1111111111111111111111111111111111111111111111111",
"                                                   1111111111111111111111111111111111111111111111111",
"                                                   1111111111111111111111111111111111111111111111111",
"                                                   1111111111111111111111111111111111111111111111111",
"                                                   1111111111111111111111111111111111111111111111111",
"                                                   1111111111111111111111111111111111111111111111111",
"                                                   1111111111111111111111111111111111111111111111111",
"                                                   1111111111111111111111111111111111111111111111111",
"                                                   1111111111111111111111111111111111111111111111111",
"                                                   1111111111111111111111111111111111111111111111111",
"                                                   1111111111111111111111111111111111111111111111111",
"                                                   1111111111111111111111111111111111111111111111111",
"                                                   1111111111111111111111111111111111111111111111111",
"                                                   1111111111111111111111111111111111111111111111111",
"                                                   1111111111111111111111111111111111111111111111111",
"                                                   1111111111111111111111111111111111111111111111111",
"                                                   1111111111111111111111111111111111111111111111111",
"                                                   1111111111111111111111111111111111111111111111111",
"                                                   1111111111111111111111111111111111111111111111111",
"                                                   1111111111111111111111111331111111111111111111111",
"                                                   1111111111111111111331311333311111111111111111111",
"                       $$$$+                 $,wJEEPZhr1111111111111113tjCPEETLBf3111111111111111111",
"                      OEEEE>               :EEEEEEEEEEEDt331111111111aTEEEEEEEEEEEGt3311111111111111",
"                      :EEEE>             .eEEEEEEEEEEEEEEg3311111311VEEEEEEEEEEEEEEEg111111111111111",
"                      JEEEE>            .NEEEEEEEEEEEEEEEEg11111331VEEEEEEEEEEEEEEEEEg11111111111111",
"                     ;EEEEE>            qEEEEEEEEEEEEEEEEEE6111131iEEEEEEEEEEEEEEEEEEE31111111111111",
"                   +9EEEEEE>           &EEEEEEE0=$%lEEEEEEEc111133DEEEEEEs33337xEEEEEEg1111111111111",
"              #<0MEEEEEEEEE>           -EEEEEJ@    16GEEEEET111136EEEEEE71111111gEEEEES1111111111111",
"              &EEEEEEEEEEEE>            X9EEEO     337EEEEEE311137EEEEEc131111113EEEEET1111111111111",
"              &EEEEEEEEEEEE>              $N#      333PEEEEE71113iEEEEEj131111113PEEEEE3111111111111",
"              &EEEEEEEEEEEE>                       133GEEEEEt31117EEEEEV132111331EEEEEE3311111111111",
"              &UUEUUEUEEEEE>                       113YEEEEE731133EEEEEEa3311113cEEEEEV3311111111111",
"                     OEEEEE>                       313EEEEEE311131VEEEEEEc13117ZEEEEEEt1111111111111",
"                     OEEEEE>                       31hEEEEEG1111337EEEEEEEEg6kEEEEEEEB31111111111111",
"                     OEEEEE>                       16EEEEEEg1111111yEEEEEEEEEEEEEEEEK311111111111111",
"                     OEEEEE>                       1VEEEEEE311111111yPEEEEEEEEEEEEEB3311111111111111",
"                     OEEEEE>                       jEEEEEEk11111113333gLEEEEEEEEEBt33331111111111111",
"                     OEEEEE>                      =EEEEEED1111111113iYEEEEEEEEEEEEEn3333111111111111",
"                     OEEEEE>                     &EEEEEEE7111111233hEEEEEEEEEEEEEEEEY733111111111111",
"                     OEEEEE>                    &EEEEEEEt311111122sEEEEEEETg6nEEEEEEEP33111111111111",
"                     OEEEEE>                   *EEEEEEEy3311111113EEEEEEEh11117AEEEEEEn1111111111111",
"1111111111111111113116EEEEEl133111111111111333fEEEEEEEi1331111113gEEEEEEt1131131cEEEEEE6111111111111",
"1111111111111111111138EEEEEl22111111111111113kEEEEEEEu11111111113AEEEEEs331111111VEEEEEa111111111111",
"1111111111111111111138EEEEEk3311111111111111bEEEEEEP7311111111113EEEEEE3111111113tEEEEEc111111111111",
"1111111111111111111336EEEEEl311111111111333VEEEEEEC33111111111113EEEEED31111111137EEEEEm111111111111",
"1111111111111111111336EEEEEl11111111111336GEEEEEEx133311111111112EEEEEP11111111137EEEEEx111111111111",
"1111111111111111111116EEEEEk111111111111tEEEEEEEi3313333113131333LEEEEE7113313313hEEEEEk111111111111",
"1111111111111111111136EEEEEl11111111111iEEEEEEKt66673667336733333cEEEEED31131333rEEEEEEy111111111111",
"1111111111111111111136EEEEEl11111111111cEEEEEEEEEEEEEEEEEEEEE7113yEEEEEETjy737inEEEEEEE3111111111111",
"1111111111111111111136EEEEEk11111111111cEEEEEEEEEEEEEEEEEEEEE71121ZEEEEEEEEEEEEEEEEEEEs3111111111111",
"1111111111111111111138EEEEEl11111111111xEEEEEEEEEEEEEEEEEEEEE733116TEEEEEEEEEEEEEEEEEc33111111111111",
"1111111111111111111138EEEEEl11111111111cEEEEEEEEEEEEEEEEEEEEEt111136PEEEEEEEEEEEEEEEc311111111111111",
"1111111111111111111136EEEEEl11111111111cEEEEEEEEEEEEEEEEEEEEE71111111kTEEEEEEEEEEEB71111111111111111",
"111111111111111111113378t88611111111111688888t88r77t88888t8r71111111133tjnSLLDZxi6111111111111111111",
"1111111111111111111111111111111111111111111111111111111111111111111111111111111111111111111111111111",
"1111111111111111111111111111111111111111111111111111111111111111111111111111111111111111111111111111",
"1111111111111111111111111111111111111111111111111111111111111111111111111111111111111111111111111111",
"1111111111111111111111111111111111111111111111111111111111111111111111111111111111111111111111111111",
"1111111111111111111111111111111111111111111111111111111111111111111111111111111111111111111111111111",
"1111111111111111111111111111111111111111111111111111111111111111111111111111111111111111111111111111",
"1111111111111111111111111111111111111111111111111111111111111111111111111111111111111111111111111111",
"1111111111111111111111111111111111111111111111111111111111111111111111111111111111111111111111111111",
"1111111111111111111111111111111111111111111111111111111111111111111111111111111111111111111111111111",
"1111111111111111111111111111111111111111111111111111111111111111111111111111111111111111111111111111",
"1111111111111111111111111111111111111111111111111111111111111111111111111111111111111111111111111111",
"1111111111111111111111111111111111111111111111111111111111111111111111111111111111111111111111111111",
"1111111111111111111111111111111111111111111111111111111111111111111111111111111111111111111111111111",
"1111111111111111111111111111111111111111111111111111111111111111111111111111111111111111111111111111",
"1111111111111111111111111111111111111111111111111111111111111111111111111111111111111111111111111111",
"1111111111111111111111111111111111111111111111111111111111111111111111111111111111111111111111111111",
"1111111111111111111111111111111111111111111111111111111111111111111111111111111111111111111111111111",
"1111111111111111111111111111111111111111111111111111111111111111111111111111111111111111111111111111",
"1111111111111111111111111111111111111111111111111111111111111111111111111111111111111111111111111111",
"1111111111111111111111111111111111111111111111111111111111111111111111111111111111111111111111111111",
"1111111111111111111111111111111111111111111111111111111111111111111111111111111111111111111111111111",
"1111111111111111111111111111111111111111111111111111111111111111111111111111111111111111111111111111",
"1111111111111111111111111111111111111111111111111111111111111111111111111111111111111111111111111111",
"1111111111111111111111111111111111111111111111111111111111111111111111111111111111111111111111111111",
"1111111111111111111111111111111111111111111111111111111111111111111111111111111111111111111111111111",
"1111111111111111111111111111111111111111111111111111111111111111111111111111111111111111111111111111",
"1111111111111111111111111111111111111111111111111111111111111111111111111111111111111111111111111111",
"1111111111111111111111111111111111111111111111111111111111111111111111111111111111111111111111111111",
"1111111111111111111111111111111111111111111111111111111111111111111111111111111111111111111111111111",
"1111111111111111111111111111111111111111111111111111111111111111111111111111111111111111111111111111",
"1111111111111111111111111111111111111111111111111111111111111111111111111111111111111111111111111111",
"k111111111111111111111111111111111111111111111111111111111111111111111111111111111111111111111111111",
"C111111111111111111111111111111111111111111111111111111111111111111111111111111111111111111111111111",
"T111111111111111111111111111111111111111111111111111111111111111111111111111111111111111111111111111",
"EG1111331111111111111111111111111111111111111111111111111111111111111111111111111111111111111111331D",
"EED11333111111111111111111111111111111111111111111111111111111111111111111111111111111111111111111DE"
};
