/* XPM */
static char *_61668269774[] = {
/* columns rows colors chars-per-pixel */
"100 100 55 1 ",
"  c #F59563",
". c #F59767",
"X c #F59867",
"o c #F5996A",
"O c #F69B6C",
"+ c #F69D6F",
"@ c #F69F71",
"# c #F6A276",
"$ c #F6A47A",
"% c #F7A67C",
"& c #F7A87F",
"* c #F7AA81",
"= c #F7AC84",
"- c #F7AE88",
"; c #F8B08B",
": c #F8B28D",
"> c #F8B390",
", c #F8B693",
"< c #F8B794",
"1 c #F8B897",
"2 c #F9BB9A",
"3 c #F9BE9F",
"4 c #F9BFA1",
"5 c #F9C0A2",
"6 c #FAC6AB",
"7 c #FAC7AC",
"8 c #FAC8AE",
"9 c #FACBB2",
"0 c #FACDB5",
"q c #FACFB8",
"w c #FBD0B9",
"e c #FBD3BE",
"r c #FBD4C0",
"t c #FBD7C4",
"y c #FBD8C6",
"u c #FBDAC8",
"i c #FCDBC9",
"p c #FCDCCB",
"a c #FCDCCC",
"s c #FCDFD0",
"d c #FCE1D3",
"f c #FCE3D6",
"g c #FDE5D8",
"h c #FDE7DC",
"j c #FDE9DF",
"k c #FDEBE1",
"l c #FDEDE4",
"z c #FEEFE8",
"x c #FEF2EB",
"c c #FEF4EF",
"v c #FEF6F1",
"b c #FEF9F6",
"n c #FFFAF8",
"m c #FFFDFC",
"M c white",
/* pixels */
"MMMby2                                                                                         2ybMM",
"MMf                                                                                               fM",
"Mf                                                                                                 f",
"b                                                                                                   ",
"y                                                                                                   ",
"2                                                                                                   ",
"                                                                                                    ",
"                                                                                                    ",
"                                                                                                    ",
"                                                                                                    ",
"                                                                                                    ",
"                                                                                                    ",
"                                                                                                    ",
"                                                                                                    ",
"                                                                                                    ",
"                                                                                                    ",
"                                                                                                    ",
"                                                                                                    ",
"                                                                                                    ",
"                                                                                                    ",
"                                                                                                    ",
"                                                                                                    ",
"                                                                                                    ",
"                                                                                                    ",
"                                                                                                    ",
"                                                                                                    ",
"                                                                                                    ",
"                                                                 Xo++o                              ",
"                                +:::::                        *0nMMMMMMg3@                          ",
"                                1MMMMM.                     ;MMMMMMMMMMMMMu@                        ",
"                                gMMMMM.                   oiMMMMMMMMMMMMMMMM,                       ",
"                               +MMMMMM.                  +vMMMMMMMMMMMMMMMMMM6                      ",
"                               8MMMMMM.                 XcMMMMMMMMMMMMMMMMMMMMo                     ",
"                              -MMMMMMM.                 yMMMMMMMMMMMMMMMMMMMM$                      ",
"                      .     @0MMMMMMMM.                :MMMMMMMM6#.  o2MMMMM,                       ",
"                      #:29sMMMMMMMMMMM.               .MMMMMMMM$       oyMM6                        ",
"                      3MMMMMMMMMMMMMMM.               ,MMMMMMM%          2p                         ",
"                      3MMMMMMMMMMMMMMM.               vMMMMMM8                                      ",
"                      3MMMMMMMMMMMMMMM.              #MMMMMMMo                                      ",
"                      3MMMMMMMMMMMMMMM.              3MMMMMMy                                       ",
"                      3ccvvcvccvMMMMMM.              hMMMMMM;                                       ",
"                              .yMMMMMM.             .MMMMMMM+   o@$*$@.                             ",
"                               yMMMMMM.             +MMMMMMM.+4xMMMMMMMk2o                          ",
"                               yMMMMMM.             &MMMMMMzqMMMMMMMMMMMMM2                         ",
"                              .yMMMMMM.             >MMMMMMcMMMMMMMMMMMMMMMi.                       ",
"                               yMMMMMM.             4MMMMMMMMMMMMMMMMMMMMMMMf                       ",
"                               yMMMMMM.             6MMMMMMMMMMMMMMMMMMMMMMMM6                      ",
"                               yMMMMMM.             9MMMMMMMMMMMMxvMMMMMMMMMMM+                     ",
"                               yMMMMMM.             0MMMMMMMMj,+   .O3MMMMMMMM6                     ",
"                               yMMMMMM.             9MMMMMMa#         +MMMMMMMb                     ",
"                              .yMMMMMM.             6MMMMMM9           =MMMMMMMo                    ",
"                               yMMMMMM.             4MMMMMMw            kMMMMMM%                    ",
"                               yMMMMMM.             ,MMMMMMy            eMMMMMM;                    ",
"                               yMMMMMM.             *MMMMMMk            3MMMMMM,                    ",
"                               yMMMMMM.             @MMMMMMM            ;MMMMMM<                    ",
"                               yMMMMMM.             .MMMMMMMo           1MMMMMM:                    ",
"                              .yMMMMMM.              xMMMMMM=           8MMMMMM*                    ",
"                               yMMMMMM.              7MMMMMMr           kMMMMMM+                    ",
"                               yMMMMMM.              %MMMMMMM+         @MMMMMMMX                    ",
"                               yMMMMMM.              .MMMMMMMf.        dMMMMMMe                     ",
"                               yMMMMMM.               5MMMMMMMio     OyMMMMMMM*                     ",
"                               yMMMMMM.               oMMMMMMMMMr3,4aMMMMMMMMk                      ",
"                               yMMMMMM.                1MMMMMMMMMMMMMMMMMMMMM$                      ",
"                               tMMMMMM.                .rMMMMMMMMMMMMMMMMMMM<                       ",
"                               yMMMMMM.                 .iMMMMMMMMMMMMMMMMM2                        ",
"                               yMMMMMM.                   6MMMMMMMMMMMMMMb%.                        ",
"                               yMmMMmm.                    @qMMMMMMMMMMl:.                          ",
"                                                             .$,70q92*O                             ",
"                                                                                                    ",
"                                                                                                    ",
"                                                                                                    ",
"                                                                                                    ",
"                                                                                                    ",
"                                                                                                    ",
"                                                                                                    ",
"                                                                                                    ",
"                                                                                                    ",
"                                                                                                    ",
"                                                                                                    ",
"                                                                                                    ",
"                                                                                                    ",
"                                                                                                    ",
"                                                                                                    ",
"                                                                                                    ",
"                                                                                                    ",
"                                                                                                    ",
"                                                                                                    ",
"                                                                                                    ",
"                                                                                                    ",
"                                                                                                    ",
"                                                                                                    ",
"                                                                                                    ",
"                                                                                                    ",
"                                                                                                    ",
"                                                                                                    ",
"2                                                                                                   ",
"y                                                                                                   ",
"b                                                                                                   ",
"Mf                                                                                                 f",
"MMf                                                                                               fM"
};
