/* XPM */
static char *_0481668269777[] = {
/* columns rows colors chars-per-pixel */
"100 100 74 1 ",
"  c #000000",
". c #050505",
"X c #090909",
"o c #0F0F0F",
"O c #131313",
"+ c #141414",
"@ c #191919",
"# c #1E1E1E",
"$ c #232323",
"% c #252525",
"& c #2A2A2A",
"* c #2E2E2E",
"= c #333333",
"- c #343434",
"; c #383838",
": c #3C3C3C",
"> c #404040",
", c #464646",
"< c #484848",
"1 c #4C4C4C",
"2 c #505050",
"3 c #575757",
"4 c #5A5A5A",
"5 c #5E5E5E",
"6 c #616161",
"7 c #676767",
"8 c #696969",
"9 c #6F6F6F",
"0 c #727272",
"q c #747474",
"w c #797979",
"e c #7C7C7C",
"r c #826B19",
"t c #A28520",
"y c #BD9A25",
"u c #EDC22E",
"i c #A79452",
"p c #AA9F7A",
"a c #F3D878",
"s c #808080",
"d c #868686",
"f c #888888",
"g c #8F8F8F",
"h c #909090",
"j c #979797",
"k c #999999",
"l c #9C9C9C",
"z c #A1A1A1",
"x c #A6A6A6",
"c c #AEACA6",
"v c #A9A9A9",
"b c #ADADAD",
"n c #B3B3B3",
"m c #B7B7B7",
"M c #B9B9B9",
"N c #BDBDBD",
"B c #F8E9B2",
"V c #C1C1C1",
"C c #C6C6C6",
"Z c #CBCBCB",
"A c #CFCFCF",
"S c #D0D0D0",
"D c #D5D5D5",
"F c #D8D8D8",
"G c #DCDCDC",
"H c #FAEFC8",
"J c #E4E4E4",
"K c #EAEAEA",
"L c #ECECEC",
"P c #F0F0F0",
"I c #F5F5F5",
"U c #FEFBF3",
"Y c #FBFBFB",
"T c white",
/* pixels */
"TTTUBauuuuuuuuuuuuuuuuuuuuuuuuuuuuuuuuuuuuuuuuuuuuuuuuuuuuuuuuuuuuuuuuuuuuuuuuuuuuuuuuuuuuuuuuuaBUTT",
"TTHuuuuuuuuuuuuuuuuuuuuuuuuuuuuuuuuuuuuuuuuuuuuuuuuuuuuuuuuuuuuuuuuuuuuuuuuuuuuuuuuuuuuuuuuuuuuuuuHT",
"THuuuuuuuuuuuuuuuuuuuuuuuuuuuuuuuuuuuuuuuuuuuuuuuuuuuuuuuuuuuuuuuuuuuuuuuuuuuuuuuuuuuuuuuuuuuuuuuuuH",
"Uuuuuuuuuuuuuuuuuuuuuuuuuuuuuuuuuuuuuuuuuuuuuuuuuuuuuuuuuuuuuuuuuuuuuuuuuuuuuuuuuuuuuuuuuuuuuuuuuuuu",
"Buuuuuuuuuuuuuuuuuuuuuuuuuuuuuuuuuuuuuuuuuuuuuuuuuuuuuuuuuuuuuuuuuuuuuuuuuuuuuuuuuuuuuuuuuuuuuuuuuuu",
"auuuuuuuuuuuuuuuuuuuuuuuuuuuuuuuuuuuuuuuuuuuuuuuuuuuuuuuuuuuuuuuuuuuuuuuuuuuuuuuuuuuuuuuuuuuuuuuuuuu",
"uuuuuuuuuuuuuuuuuuuuuuuuuuuuuuuuuuuuuuuuuuuuuuuuuuuuuuuuuuuuuuuuuuuuuuuuuuuuuuuuuuuuuuuuuuuuuuuuuuuu",
"uuuuuuuuuuuuuuuuuuuuuuuuuuuuuuuuuuuuuuuuuuuuuuuuuuuuuuuuuuuuuuuuuuuuuuuuuuuuuuuuuuuuuuuuuuuuuuuuuuuu",
"uuuuuuuuuuuuuuuuuuuuuuuuuuuuuuuuuuuuuuuuuuuuuuuuuuuuuuuuuuuuuuuuuuuuuuuuuuuuuuuuuuuuuuuuuuuuuuuuuuuu",
"uuuuuuuuuuuuuuuuuuuuuuuuuuuuuuuuuuuuuuuuuuuuuuuuuuuuuuuuuuuuuuuuuuuuuuuuuuuuuuuuuuuuuuuuuuuuuuuuuuuu",
"uuuuuuuuuuuuuuuuuuuuuuuuuuuuuuuuuuuuuuuuuuuuuuuuuuuuuuuuuuuuuuuuuuuuuuuuuuuuuuuuuuuuuuuuuuuuuuuuuuuu",
"uuuuuuuuuuuuuuuuuuuuuuuuuuuuuuuuuuuuuuuuuuuuuuuuuuuuuuuuuuuuuuuuuuuuuuuuuuuuuuuuuuuuuuuuuuuuuuuuuuuu",
"uuuuuuuuuuuuuuuuuuuuuuuuuuuuuuuuuuuuuuuuuuuuuuuuuuuuuuuuuuuuuuuuuuuuuuuuuuuuuuuuuuuuuuuuuuuuuuuuuuuu",
"uuuuuuuuuuuuuuuuuuuuuuuuuuuuuuuuuuuuuuuuuuuuuuuuuuuuuuuuuuuuuuuuuuuuuuuuuuuuuuuuuuuuuuuuuuuuuuuuuuuu",
"uuuuuuuuuuuuuuuuuuuuuuuuuuuuuuuuuuuuuuuuuuuuuuuuuuuuuuuuuuuuuuuuuuuuuuuuuuuuuuuuuuuuuuuuuuuuuuuuuuuu",
"uuuuuuuuuuuuuuuuuuuuuuuuuuuuuuuuuuuuuuuuuuuuuuuuuuuuuuuuuuuuuuuuuuuuuuuuuuuuuuuuuuuuuuuuuuuuuuuuuuuu",
"uuuuuuuuuuuuuuuuuuuuuuuuuuuuuuuuuuuuuuuuuuuuuuuuuuuuuuuuuuuuuuuuuuuuuuuuuuuuuuuuuuuuuuuuuuuuuuuuuuuu",
"uuuuuuuuuuuuuuuuuuuuuuuuuuuuuuuuuuuuuuuuuuuuuuuuuuuuuuuuuuuuuuuuuuuuuuuuuuuuuuuuuuuuuuuuuuuuuuuuuuuu",
"uuuuuuuuuuuuuuuuuuuuuuuuuuuuuuuuuuuuuuuuuuuuuuuuuuuuuuuuuuuuuuuuuuuuuuuuuuuuuuuuuuuuuuuuuuuuuuuuuuuu",
"uuuuuuuuuuuuuuuuuuuuuuuuuuuuuuuuuuuuuuuuuuuuuuuuuuuuuuuuuuuuuuuuuuuuuuuuuuuuuuuuuuuuuuuuuuuuuuuuuuuu",
"uuuuuuuuuuuuuuuuuuuuuuuuuuuuuuuuuuuuuuuuuuuuuuuuuuuuuuuuuuuuuuuuuuuuuuuuuuuuuuuuuuuuuuuuuuuuuuuuuuuu",
"uuuuuuuuuuuuuuuuuuuuuuuuuuuuuuuuuuuuuuuuuuuuuuuuuuuuuuuuuuuuuuuuuuuuuuuuuuuuuuuuuuuuuuuuuuuuuuuuuuuu",
"uuuuuuuuuuuuuuuuuuuuuuuuuuuuuuuuuuuuuuuuuuuuuuuuuuuuuuuuuuuuuuuuuuuuuuuuuuuuuuuuuuuuuuuuuuuuuuuuuuuu",
"uuuuuuuuuuuuuuuuuuuuuuuuuuuuuuuuuuuuuuuuuuuuuuuuuuuuuuuuuuuuuuuuuuuuuuuuuuuuuuuuuuuuuuuuuuuuuuuuuuuu",
"uuuuuuuuuuuuuuuuuuuuuuuuuuuuuuuuuuuuuuuuuuuuuuuuuuuuuuuuuuuuuuuuuuuuuuuuuuuuuuuuuuuuuuuuuuuuuuuuuuuu",
"uuuuuuuuuuuuuuuuuuuuuuuuuuuuuuuuuuuuuuuuuuuuuuuuuuuuuuuuuuuuuuuuuuuuuuuuuuuuuuuuuuuuuuuuuuuuuuuuuuuu",
"uuuuuuuuuuuuuuuuuuuuuuuuuuuuuuuuuuuuuuuuuuuuuuuuuuuuuuuuuuuuuuuuuuuuuuuuuuuuuuuuuuuuuuuuuuuuuuuuuuuu",
"uuuuuuuuuuuuuuuuuuuuuuuuuuuuuuuuuuuuuuuuuuuuuuuuuuuuuuuuuuuuuuuuuuuuuuuuuuuuuuuuuuuuuuuuuuuuuuuuuuuu",
"yrrrrrrrrrrrrrrrrrrrrrrrrrrrrrrrrrrrrrrrrrrrrrrrrrrrrrrrrrrrrrrrrrrrrrrrrrrrrrrrrrrrrrrrrrrrrrrrrrrr",
"t                                                                                                   ",
"t                                                                                                   ",
"t                                                                                                   ",
"t                                                                                                   ",
"t                                                                                                   ",
"t                                                                                                   ",
"t                                                                                                   ",
"t                                                                                                   ",
"t                                                                                                   ",
"t                                                                                                   ",
"t                                                                                                   ",
"t                                                                                                   ",
"t                                                                                                   ",
"t                                                                                                   ",
"t                                                                                                   ",
"t                                                                                                   ",
"t                                                                                                   ",
"t                                                                                                   ",
"t                                                                                                   ",
"t                                                                                                   ",
"t                                                                                                   ",
"t                                                                                                   ",
"t                                                                                                   ",
"t                                                                                                   ",
"t                                                                                                   ",
"t                                                                                                   ",
"t                                                                                                   ",
"t                                                                                                   ",
"t                                                                                                   ",
"t                                                                                                   ",
"t                                                                                                   ",
"t                                                                                                   ",
"t                                                                                                   ",
"t                                                                                                   ",
"t                                                                                                   ",
"t                                                                                                   ",
"t                                                                                                   ",
"t               X=6sd9,+              O;27<-X                    OOoO           @:9ed0<#            ",
"t             ogTTTTTTTTm#          *DTTTTTTTb@                 *TTTT$        &CTTTTTTTTP,          ",
"t            %TTTTTTTTTTTT>        0TTTTTTTTTTT>               OTTTTT#       2TTTTTTTTTTTTg         ",
"t           +TTTTTTTTTTTTTT#      6TTTTTTTTTTTTT-              ZTTTTT$      &TTTTTTTTTTTTTT5        ",
"t           bTTTTTDdsZTTTTTm     @TTTTTTbgMTTTTTT.            fTTTTTT$      VTTTTF3=*1MTTTTT.       ",
"t           zTTTT;    :TTTTTX    gTTTTVO   %TTTTT<           4TTTTTTT$     XTTTTS      gTTTT*       ",
"t            ;YT-      lTTTT#   .TTTTT+     ;TTTTZ          *TTTTTTTT#     +TTTT1      #TTTT>       ",
"t             .,       5TTTT*   &TTTTg       LTTTTX        OTTTTkTTTT$     #TTTT2      $TTTT<       ",
"t                      0TTTT%   4TTTT:       dTTTT%        ATTTJ$TTTT$     XTTTTT@    .bTTTT$       ",
"t                      ZTTTTo   hTTTT+       ,TTTT<       gTTTT#$TTTT$      kTTTTT3  &DTTTTD        ",
"t                     &TTTTL    NTTTT.       &TTTT8      3TTTT; %TTTT$      oTTTTTTPmTTTTTT%        ",
"t                     GTTTT4    JTTTT        @TTTTs     *TTTT8  $TTTT$       @GTTTTTTTTTTT=         ",
"t                    gTTTTT.    LTTTT        +TTTTg    OTTTTx   $TTTT$        X4TTTTTTTTqo          ",
"t                   0TTTTT*     ITTTT        OTTTTg   .ATTTPX   %TTTT#       &TTTTTTTTTTTT<         ",
"t                  9TTTTT2      KTTTT        @TTTTf   gTTTT#    $TTTT$      ;TTTTTTVzTTTTTT2        ",
"t                 9TTTTT7       ATTTT        $TTTT0  3TTTT>     $TTTT$      PTTTTJ*  $VTTTTT@       ",
"t                sTTTTT8        vTTTTo       -TTTT3 +TTTTZZZZZZZZTTTTZZZ1  1TTTTN.     sTTTTd       ",
"t              .lTTTTT2         wTTTT$       5TTTT- @TTTTTTTTTTTTTTTTTTT2  wTTTT+      .YTTTL       ",
"t             XVTTTTT=          >TTTT5       mTTTTO @TTTTTTTTTTTTTTTTTTT2  mTTTP        hTTTT       ",
"t            @LTTTTD+           OTTTTJ      oTTTTT  @TTTTTTTTTTTTTTTTTTT2  vTTTT        xTTTT       ",
"t           *TTTTTg              FTTTT3     jTTTTw  .;;:;;;;;:;;;TTTT;;;@  dTTTT=      +TTTTF       ",
"t          .TTTTTCCCCCCCCCCCCX   <TTTTTq#o&zTTTTT@              %TTTT$     *TTTTT1O .o;ITTTT7       ",
"t           TTTTTTTTTTTTTTTTTX    FTTTTTTTTTTTTTe               $TTTT#      STTTTTTTTTTTTTTTo       ",
"t          .TTTTTTTTTTTTTTTTTX    +TTTTTTTTTTTTv                $TTTT$      #TTTTTTTTTTTTTT-        ",
"t          .TTTTTTTTTTTTTTTTTX     @mTTTTTTTTTe.                %TTTT$       @nTTTTTTTTTTZ%         ",
"t           66666666666666666        *fPTTTJ9#                  O6665O         $qVTTTTAe%           ",
"t                                        .                                                          ",
"t                                                                                                   ",
"t                                                                                                   ",
"i                                                                                                   ",
"p                                                                                                   ",
"c                                                                                                   ",
"b                                                                                                   ",
"n                                                                                                   "
};
