/* XPM */
static char *_561668269776[] = {
/* columns rows colors chars-per-pixel */
"100 100 52 1 ",
"  c #EDCC61",
". c #EDCD65",
"X c #EECF69",
"o c #EECF6C",
"O c #EFD06E",
"+ c #EFD272",
"@ c #EFD275",
"# c #F0D377",
"$ c #F0D378",
"% c #F0D47A",
"& c #F0D57C",
"* c #F0D680",
"= c #F1D784",
"- c #F1D885",
"; c #F1D988",
": c #F2DB8F",
"> c #F2DB91",
", c #F3DC93",
"< c #F3DC94",
"1 c #F3DE99",
"2 c #F4DF9B",
"3 c #F4DF9D",
"4 c #F4E09D",
"5 c #F4E1A3",
"6 c #F5E2A6",
"7 c #F5E3A8",
"8 c #F6E5AF",
"9 c #F7E7B5",
"0 c #F7E8B7",
"q c #F7E8B9",
"w c #F7E9BB",
"e c #F8EABF",
"r c #F8EBC1",
"t c #F8ECC3",
"y c #F8ECC5",
"u c #F9EECB",
"i c #F9EFCD",
"p c #FAF0D1",
"a c #FAF2D5",
"s c #FBF3DA",
"d c #FBF3DB",
"f c #FBF4DE",
"g c #FBF5E0",
"h c #FCF6E2",
"j c #FCF7E6",
"k c #FCF7E8",
"l c #FDF8E9",
"z c #FDFAEF",
"x c #FDFAF1",
"c c #FEFCF6",
"v c #FEFDF8",
"b c #FFFFFF",
/* pixels */
"bbbcy1                                                                                         1ycbb",
"bba                                                                                               ab",
"ba                                                                                                 a",
"c                                                                                                   ",
"y                                                                                                   ",
"1                                                                                                   ",
"                                                                                                    ",
"                                                                                                    ",
"                                                                                                    ",
"                                                                                                    ",
"                                                                                                    ",
"                                                                                                    ",
"                                                                                                    ",
"                                                                                                    ",
"                                                                                                    ",
"                                                                                                    ",
"                                                                                                    ",
"                                                                                                    ",
"                                                                                                    ",
"                                                                                                    ",
"                                                                                                    ",
"                                                                                                    ",
"                                                                                                    ",
"                                                                                                    ",
"                                                                                                    ",
"                                                                                                    ",
"                                                                                                    ",
"                                                                                                    ",
"                                                                                                    ",
"                                                                                                    ",
"                                                                                                    ",
"                       O@%+O                                                 X@%@O.                 ",
"                   X<sbbbbbbbp=             eeeeeeeeeeeeeeeee&            @qbbbbbbba;.              ",
"                  1bbbbbbbbbbbbl@          .bbbbbbbbbbbbbbbbb*          Xtbbbbbbbbbbbc&             ",
"                 tbbbbbbbbbbbbbbb-         Obbbbbbbbbbbbbbbbb*         @bbbbbbbbbbbbbbb2            ",
"                qbbbbbbbbbbbbbbbbb@        #bbbbbbbbbbbbbbbbb*        Obbbbbbbbbbbbbbbbb@           ",
"               :bbbbbbbbbbbbbbbbbba        *bbbbbbbbbbbbbbbbb*        jbbbbbbbbzbbbbbbb,            ",
"              Xbbbbbbb4X  .*cbbbbbb+       ,bbbbb889888888899@       4bbbbbbt+   O9bbb8             ",
"               -bbbbb$      Xbbbbbb2       6bbbbj                   Xbbbbbb6       *bp              ",
"                .7bb&        <bbbbbq       qbbbby                   1bbbbbf         O.              ",
"                  +<         @bbbbbi       pbbbb8                   zbbbbb&                         ",
"                             @bbbbbu       zbbbb<                  Obbbbbv                          ",
"                             -bbbbb9       bbbbb*                  -bbbbb9                          ",
"                             qbbbbb,      .bbbbb@&<53>*X           8bbbbb;.*0jbbvg6%                ",
"                            Obbbbbb+      Xbbbbbbbbbbbbbh-         pbbbbb1bbbbbbbbbbf#              ",
"                            rbbbbbl       @bbbbbbbbbbbbbbbaO       xbbbbbbbbbbbbbbbbbb<             ",
"                           >bbbbbb;       *bbbbbbbbbbbbbbbbbX      bbbbbbbbbbbbbbbbbbbb*            ",
"                          &bbbbbbp        :bbbbbbbbbbbbbbbbbg      bbbbbbbbbbbbbbbbbbbbb.           ",
"                         @bbbbbbbO        5bbbbbi5<3qvbbbbbbb-    .bbbbbbbbr;@@-4bbbbbbb<           ",
"                        +bbbbbbb%         9bbb:.      :bbbbbbh     bbbbbb1.      .ubbbbbg           ",
"                       @bbbbbbb;           .           -bbbbbb.    bbbbbb.        +bbbbbb.          ",
"                      %bbbbbbb>                         hbbbbb$    vbbbbbX         ibbbbbO          ",
"                     *bbbbbbb:                          7bbbbb*    gbbbbb+         8bbbbb@          ",
"                    ;bbbbbbb*                           1bbbbb;    ebbbbb&         ,bbbbb%          ",
"                   1bbbbbbv+                            6bbbbb*    2bbbbb3         3bbbbb+          ",
"                  8bbbbbbiX                             pbbbbb@    %bbbbba         qbbbbbO          ",
"                .ybbbbbb7                  .6*         Xbbbbbb.     bbbbbbO       .bbbbbb           ",
"               ohbbbbbb;                  *vbb%        rbbbbbf      ybbbbbt       <bbbbbu           ",
"              .bbbbbbl<<<1<<<1<<<<<<>   Xqbbbbb3.    +ubbbbbb:      &bbbbbbqX    <bbbbbb=           ",
"              .bbbbbbbbbbbbbbbbbbbbbu   @bbbbbbbbjisbbbbbbbbc        sbbbbbbbsrabbbbbbbz            ",
"               bbbbbbbbbbbbbbbbbbbbbu    6bbbbbbbbbbbbbbbbbb%        @bbbbbbbbbbbbbbbbb@            ",
"              .bbbbbbbbbbbbbbbbbbbbbu     8bbbbbbbbbbbbbbbb:          :bbbbbbbbbbbbbbb:             ",
"              .bbbbbbbbbbbbbbbbbbbbbu      :bbbbbbbbbbbbbv&            =bbbbbbbbbbbbb#              ",
"              .jljljljlljljlljljlklly       .1zbbbbbbbbf:               .5bbbbbbbbh:                ",
"                                               X%-::*@.                    O*;>*%X                  ",
"                                                                                                    ",
"                                                                                                    ",
"                                                                                                    ",
"                                                                                                    ",
"                                                                                                    ",
"                                                                                                    ",
"                                                                                                    ",
"                                                                                                    ",
"                                                                                                    ",
"                                                                                                    ",
"                                                                                                    ",
"                                                                                                    ",
"                                                                                                    ",
"                                                                                                    ",
"                                                                                                    ",
"                                                                                                    ",
"                                                                                                    ",
"                                                                                                    ",
"                                                                                                    ",
"                                                                                                    ",
"                                                                                                    ",
"                                                                                                    ",
"                                                                                                    ",
"                                                                                                    ",
"                                                                                                    ",
"                                                                                                    ",
"                                                                                                    ",
"                                                                                                    ",
"                                                                                                    ",
"                                                                                                    ",
"1                                                                                                   ",
"y                                                                                                   ",
"c                                                                                                   ",
"ba                                                                                                 a",
"bba                                                                                               ab"
};
