/* XPM */
static char *_21668269775[] = {
/* columns rows colors chars-per-pixel */
"100 100 62 1 ",
"  c #F67C5F",
". c #F67E61",
"X c #F68063",
"o c #F68166",
"O c #F68368",
"+ c #F7856A",
"@ c #F7876C",
"# c #F7886E",
"$ c #F78B71",
"% c #F78C72",
"& c #F78E75",
"* c #F79077",
"= c #F79179",
"- c #F8947C",
"; c #F89780",
": c #F89A84",
"> c #F89B85",
", c #F89D87",
"< c #F89E89",
"1 c #F8A08B",
"2 c #F9A38E",
"3 c #F9A693",
"4 c #F9A794",
"5 c #F9A895",
"6 c #F9AB98",
"7 c #F9AE9C",
"8 c #FAB09E",
"9 c #FAB2A1",
"0 c #FAB4A3",
"q c #FAB6A6",
"w c #FAB7A8",
"e c #FABAAB",
"r c #FABBAC",
"t c #FABCAD",
"y c #FBBFB1",
"u c #FBC0B2",
"i c #FBC2B5",
"p c #FBC5B8",
"a c #FBC8BC",
"s c #FBCBBF",
"d c #FBCBC0",
"f c #FBCCC0",
"g c #FCCFC4",
"h c #FCD0C6",
"j c #FCD4CB",
"k c #FCD5CC",
"l c #FCD8CF",
"z c #FCDAD2",
"x c #FDDDD5",
"c c #FDDFD7",
"v c #FDE1DA",
"b c #FDE3DD",
"n c #FDE6E0",
"m c #FDE9E4",
"M c #FEECE8",
"N c #FEEEEA",
"B c #FEF0ED",
"V c #FEF4F1",
"C c #FEF5F3",
"Z c #FEF7F6",
"A c #FFFAF9",
"S c white",
/* pixels */
"SSSZg6                                                                                         6gZSS",
"SSx                                                                                               xS",
"Sx                                                                                                 x",
"Z                                                                                                   ",
"g                                                                                                   ",
"6                                                                                                   ",
"                                                                                                    ",
"                                                                                                    ",
"                                                                                                    ",
"                                                                                                    ",
"                                                                                                    ",
"                                                                                                    ",
"                                                                                                    ",
"                                                                                                    ",
"                                                                                                    ",
"                                                                                                    ",
"                                                                                                    ",
"                                                                                                    ",
"                                                                                                    ",
"                                                                                                    ",
"                                                                                                    ",
"                                                                                                    ",
"                                                                                                    ",
"                                                                                                    ",
"                                                                                                    ",
"                                                                                                    ",
"                                                                                                    ",
"                             .&<9eit9<$.                      O-4qyyq4=o                            ",
"                          .>zSSSSSSSSSSSp&                 o5NSSSSSSSSSSk;                          ",
"                         >ASSSSSSSSSSSSSSSso              3SSSSSSSSSSSSSSSv$                        ",
"                        eSSSSSSSSSSSSSSSSSSS#           .fSSSSSSSSSSSSSSSSSS-                       ",
"                       ySSSSSSSSSSSSSSSSSSSSAo         .kSSSSSSSSSSSSSSSSSSSS&                      ",
"                     .5SSSSSSSSSSSSSSSSSSSSSSi.        eSSSSSSSSSSSSSSSSSSSSSN.                     ",
"                     OSSSSSSSSSShe7exSSSSSSSSSO       =SSSSSSSSSmiqyxSSSSSSSSS3                     ",
"                     -SSSSSSSS>.     OgSSSSSSS5       NSSSSSSSk$    .odSSSSSSSn                     ",
"                     ..eSSSSso         NSSSSSSf      .OhSSSSSy .       iSSSSSSSo                    ",
"                        $xSv.          3SSSSSSv         :SSSs         .oSSSSSSS&                    ",
"                          2O           =SSSSSSb          .eB            vSSSSSS>                    ",
"                                       -SSSSSSj            .            gSSSSSS1                    ",
"                                       0SSSSSSq                         kSSSSSS>                    ",
"                                      oSSSSSSS-                       . ASSSSSS&                    ",
"                                     oxSSSSSSS..                      .OSSSSSSSo                    ",
"                                  .$9SSSSSSSS2                         qSSSSSSC                     ",
"                             dSASSSSSSSSSSSSs                         OSSSSSSSq                     ",
"                             sSSSSSSSSSSSSSr                         .hSSSSSSS#                     ",
"                             sSSSSSSSSSSNq$                          5SSSSSSSp                      ",
"                             dSSSSSSSSSSSSA>                       .-SSSSSSSSO                      ",
"                             dSSSSSSSSSSSSSS8                      &SSSSSSSS<                       ",
"                             sSSSSSSSSSSSSSSS3                    %SSSSSSSSq                        ",
"                            .O@#@$>3pSSSSSSSSS@                  $SSSSSSSSs                         ",
"                                     OwSSSSSSSu                 &SSSSSSSSk                          ",
"                                     . gSSSSSSS.               &SSSSSSSSx.                          ",
"                                       XSSSSSSS#              -SSSSSSSSj.                           ",
"                                        ASSSSSS-             <SSSSSSSSp.                            ",
"                                        gSSSSSS1            5SSSSSSSS9                              ",
"                                        gSSSSSS3           eSSSSSSSS<                               ",
"                                        vSSSSSS<         .sSSSSSSSS$                                ",
"                         Oe            .SSSSSSS=        ovSSSSSSSjo                                 ",
"                       .5SS9           3SSSSSSSo      .$ASSSSSSS9.                                  ",
"                      *mSSSSt. .      =SSSSSSSN       -SSSSSSSS>                                    ",
"                     uSSSSSSSA2O. .o&pSSSSSSSS5       nSSSSSSVVVVVVVVVVVVVVVCVVVy                   ",
"                     <SSSSSSSSSSSSSSSSSSSSSSSSo       nSSSSSSSSSSSSSSSSSSSSSSSSSy                   ",
"                      sSSSSSSSSSSSSSSSSSSSSSS>        nSSSSSSSSSSSSSSSSSSSSSSSSSy                   ",
"                      .zSSSSSSSSSSSSSSSSSSSS5         nSSSSSSSSSSSSSSSSSSSSSSSSSy                   ",
"                       .eSSSSSSSSSSSSSSSSSS,          nSSSSSSSSSSSSSSSSSSSSSSSSSy                   ",
"                         &kSSSSSSSSSSSSSSto           nSSSSSSSSSSSSSSSSSSSSSSSSSy                   ",
"                           O5zSSSSSSSCp,o             22222222222222222222222222;                   ",
"                            . .oO#Oo. .                                                             ",
"                                                                                                    ",
"                                                                                                    ",
"                                                                                                    ",
"                                                                                                    ",
"                                                                                                    ",
"                                                                                                    ",
"                                                                                                    ",
"                                                                                                    ",
"                                                                                                    ",
"                                                                                                    ",
"                                                                                                    ",
"                                                                                                    ",
"                                                                                                    ",
"                                                                                                    ",
"                                                                                                    ",
"                                                                                                    ",
"                                                                                                    ",
"                                                                                                    ",
"                                                                                                    ",
"                                                                                                    ",
"                                                                                                    ",
"                                                                                                    ",
"                                                                                                    ",
"                                                                                                    ",
"                                                                                                    ",
"                                                                                                    ",
"                                                                                                    ",
"6                                                                                                   ",
"g                                                                                                   ",
"Z                                                                                                   ",
"Sx                                                                                                 x",
"SSx                                                                                               xS"
};
