/* XPM */
static char *_0961668269778[] = {
/* columns rows colors chars-per-pixel */
"100 100 74 1 ",
"  c #000000",
". c #040404",
"X c #080808",
"o c #0C0C0C",
"O c #111111",
"+ c #151515",
"@ c #191919",
"# c #1D1D1D",
"$ c #222222",
"% c #252525",
"& c #2A2A2A",
"* c #2F2F2F",
"= c #323232",
"- c #353535",
"; c #3A3A3A",
": c #3F3F3F",
"> c #414141",
", c #454545",
"< c #484848",
"1 c #4E4E4E",
"2 c #525252",
"3 c #575757",
"4 c #5B5B5B",
"5 c #5D5D5D",
"6 c #626262",
"7 c #656565",
"8 c #6B6B6B",
"9 c #6C6C6C",
"0 c #737373",
"q c #787878",
"w c #7C7C7C",
"e c #826B19",
"r c #A28520",
"t c #BD9A25",
"y c #EDC22E",
"u c #A79452",
"i c #AA9F7A",
"p c #F3D878",
"a c #838383",
"s c #868686",
"d c #898989",
"f c #8F8F8F",
"g c #909090",
"h c #959595",
"j c #989898",
"k c #9C9C9C",
"l c #A2A2A2",
"z c #A4A4A4",
"x c #AEACA6",
"c c #A8A8A8",
"v c #AFAFAF",
"b c #B2B2B2",
"n c #B6B6B6",
"m c #BBBBBB",
"M c #BEBEBE",
"N c #F8E9B2",
"B c #C1C1C1",
"V c #C6C6C6",
"C c #C9C9C9",
"Z c #CECECE",
"A c #D3D3D3",
"S c #D6D6D6",
"D c #DBDBDB",
"F c #DCDCDC",
"G c #FAEFC8",
"H c #E2E2E2",
"J c #E6E6E6",
"K c #EBEBEB",
"L c #ECECEC",
"P c #F2F2F2",
"I c #F4F4F4",
"U c #FEFBF3",
"Y c #F9F9F9",
"T c white",
/* pixels */
"TTTUNpyyyyyyyyyyyyyyyyyyyyyyyyyyyyyyyyyyyyyyyyyyyyyyyyyyyyyyyyyyyyyyyyyyyyyyyyyyyyyyyyyyyyyyyyypNUTT",
"TTGyyyyyyyyyyyyyyyyyyyyyyyyyyyyyyyyyyyyyyyyyyyyyyyyyyyyyyyyyyyyyyyyyyyyyyyyyyyyyyyyyyyyyyyyyyyyyyyGT",
"TGyyyyyyyyyyyyyyyyyyyyyyyyyyyyyyyyyyyyyyyyyyyyyyyyyyyyyyyyyyyyyyyyyyyyyyyyyyyyyyyyyyyyyyyyyyyyyyyyyG",
"Uyyyyyyyyyyyyyyyyyyyyyyyyyyyyyyyyyyyyyyyyyyyyyyyyyyyyyyyyyyyyyyyyyyyyyyyyyyyyyyyyyyyyyyyyyyyyyyyyyyy",
"Nyyyyyyyyyyyyyyyyyyyyyyyyyyyyyyyyyyyyyyyyyyyyyyyyyyyyyyyyyyyyyyyyyyyyyyyyyyyyyyyyyyyyyyyyyyyyyyyyyyy",
"pyyyyyyyyyyyyyyyyyyyyyyyyyyyyyyyyyyyyyyyyyyyyyyyyyyyyyyyyyyyyyyyyyyyyyyyyyyyyyyyyyyyyyyyyyyyyyyyyyyy",
"yyyyyyyyyyyyyyyyyyyyyyyyyyyyyyyyyyyyyyyyyyyyyyyyyyyyyyyyyyyyyyyyyyyyyyyyyyyyyyyyyyyyyyyyyyyyyyyyyyyy",
"yyyyyyyyyyyyyyyyyyyyyyyyyyyyyyyyyyyyyyyyyyyyyyyyyyyyyyyyyyyyyyyyyyyyyyyyyyyyyyyyyyyyyyyyyyyyyyyyyyyy",
"yyyyyyyyyyyyyyyyyyyyyyyyyyyyyyyyyyyyyyyyyyyyyyyyyyyyyyyyyyyyyyyyyyyyyyyyyyyyyyyyyyyyyyyyyyyyyyyyyyyy",
"yyyyyyyyyyyyyyyyyyyyyyyyyyyyyyyyyyyyyyyyyyyyyyyyyyyyyyyyyyyyyyyyyyyyyyyyyyyyyyyyyyyyyyyyyyyyyyyyyyyy",
"yyyyyyyyyyyyyyyyyyyyyyyyyyyyyyyyyyyyyyyyyyyyyyyyyyyyyyyyyyyyyyyyyyyyyyyyyyyyyyyyyyyyyyyyyyyyyyyyyyyy",
"yyyyyyyyyyyyyyyyyyyyyyyyyyyyyyyyyyyyyyyyyyyyyyyyyyyyyyyyyyyyyyyyyyyyyyyyyyyyyyyyyyyyyyyyyyyyyyyyyyyy",
"yyyyyyyyyyyyyyyyyyyyyyyyyyyyyyyyyyyyyyyyyyyyyyyyyyyyyyyyyyyyyyyyyyyyyyyyyyyyyyyyyyyyyyyyyyyyyyyyyyyy",
"yyyyyyyyyyyyyyyyyyyyyyyyyyyyyyyyyyyyyyyyyyyyyyyyyyyyyyyyyyyyyyyyyyyyyyyyyyyyyyyyyyyyyyyyyyyyyyyyyyyy",
"yyyyyyyyyyyyyyyyyyyyyyyyyyyyyyyyyyyyyyyyyyyyyyyyyyyyyyyyyyyyyyyyyyyyyyyyyyyyyyyyyyyyyyyyyyyyyyyyyyyy",
"yyyyyyyyyyyyyyyyyyyyyyyyyyyyyyyyyyyyyyyyyyyyyyyyyyyyyyyyyyyyyyyyyyyyyyyyyyyyyyyyyyyyyyyyyyyyyyyyyyyy",
"yyyyyyyyyyyyyyyyyyyyyyyyyyyyyyyyyyyyyyyyyyyyyyyyyyyyyyyyyyyyyyyyyyyyyyyyyyyyyyyyyyyyyyyyyyyyyyyyyyyy",
"yyyyyyyyyyyyyyyyyyyyyyyyyyyyyyyyyyyyyyyyyyyyyyyyyyyyyyyyyyyyyyyyyyyyyyyyyyyyyyyyyyyyyyyyyyyyyyyyyyyy",
"yyyyyyyyyyyyyyyyyyyyyyyyyyyyyyyyyyyyyyyyyyyyyyyyyyyyyyyyyyyyyyyyyyyyyyyyyyyyyyyyyyyyyyyyyyyyyyyyyyyy",
"yyyyyyyyyyyyyyyyyyyyyyyyyyyyyyyyyyyyyyyyyyyyyyyyyyyyyyyyyyyyyyyyyyyyyyyyyyyyyyyyyyyyyyyyyyyyyyyyyyyy",
"yyyyyyyyyyyyyyyyyyyyyyyyyyyyyyyyyyyyyyyyyyyyyyyyyyyyyyyyyyyyyyyyyyyyyyyyyyyyyyyyyyyyyyyyyyyyyyyyyyyy",
"yyyyyyyyyyyyyyyyyyyyyyyyyyyyyyyyyyyyyyyyyyyyyyyyyyyyyyyyyyyyyyyyyyyyyyyyyyyyyyyyyyyyyyyyyyyyyyyyyyyy",
"yyyyyyyyyyyyyyyyyyyyyyyyyyyyyyyyyyyyyyyyyyyyyyyyyyyyyyyyyyyyyyyyyyyyyyyyyyyyyyyyyyyyyyyyyyyyyyyyyyyy",
"yyyyyyyyyyyyyyyyyyyyyyyyyyyyyyyyyyyyyyyyyyyyyyyyyyyyyyyyyyyyyyyyyyyyyyyyyyyyyyyyyyyyyyyyyyyyyyyyyyyy",
"yyyyyyyyyyyyyyyyyyyyyyyyyyyyyyyyyyyyyyyyyyyyyyyyyyyyyyyyyyyyyyyyyyyyyyyyyyyyyyyyyyyyyyyyyyyyyyyyyyyy",
"yyyyyyyyyyyyyyyyyyyyyyyyyyyyyyyyyyyyyyyyyyyyyyyyyyyyyyyyyyyyyyyyyyyyyyyyyyyyyyyyyyyyyyyyyyyyyyyyyyyy",
"yyyyyyyyyyyyyyyyyyyyyyyyyyyyyyyyyyyyyyyyyyyyyyyyyyyyyyyyyyyyyyyyyyyyyyyyyyyyyyyyyyyyyyyyyyyyyyyyyyyy",
"yyyyyyyyyyyyyyyyyyyyyyyyyyyyyyyyyyyyyyyyyyyyyyyyyyyyyyyyyyyyyyyyyyyyyyyyyyyyyyyyyyyyyyyyyyyyyyyyyyyy",
"teeeeeeeeeeeeeeeeeeeeeeeeeeeeeeeeeeeeeeeeeeeeeeeeeeeeeeeeeeeeeeeeeeeeeeeeeeeeeeeeeeeeeeeeeeeeeeeeeee",
"r                                                                                                   ",
"r                                                                                                   ",
"r                                                                                                   ",
"r                                                                                                   ",
"r                                                                                                   ",
"r                                                                                                   ",
"r                                                                                                   ",
"r                                                                                                   ",
"r                                                                                                   ",
"r                                                                                                   ",
"r                                                                                                   ",
"r                                                                                                   ",
"r                                                                                                   ",
"r                                                                                                   ",
"r                                                                                                   ",
"r                                                                                                   ",
"r                                                                                                   ",
"r                                                                                                   ",
"r                                                                                                   ",
"r                                                                                                   ",
"r                                                                                                   ",
"r                                                                                                   ",
"r                                                                                                   ",
"r                                                                                                   ",
"r                                                                                                   ",
"r                                                                                                   ",
"r                                                                                                   ",
"r                                                                                                   ",
"r                                                                                                   ",
"r                                                                                                   ",
"r                                                                                                   ",
"r                                                                                                   ",
"r                                                                                                   ",
"r                                                                                                   ",
"r                                                                                                   ",
"r                                         X+X.                o@%+X                 o@$@.           ",
"r                       fCCC.          =gTTTTTV3.          X7LTTTTTB<            X7KTTTTTV:         ",
"r                      4TTTT.         gTTTTTTTTTP*        &TTTTTTTTTTnX         -TTTTTTTTTTno       ",
"r                     *TTTTT.        lTTTTTTTTTTTT$      $TTTTTTTTTTTTb        -TTTTTTTTTTTTn       ",
"r                    +TTTTTT.       6TTTTK4;1cTTTTP.     JTTTT9*$:nTTTT3      +TTTTT9=$,ZTTYX       ",
"r                    ATTTTTT.      XTTTTh.    :TTTT1    ;TTTT#     dTTTT      cTTTIO     8T$        ",
"r                   fTTTZTTTX      ,TTTTX      0TTTD    fTTT2      XTTTT=    #TTTT$       #         ",
"r                  4TTTYZTTT.      zTTT9       OTTTTo   LTTTo       aTTT0    qTTTz                  ",
"r                 =TTTT$ZTTT.      TTTT%        KTTT=   TTTT.       ;TTTV    ITTT-                  ",
"r                +TTTT> ZTTT.     XTTTT.        fTTT6   TTTT        #TTTT   XTTTTo  +$$+            ",
"r               .ATTT9  ZTTT.     @TTTT         6TTTf   TTTTO       OTTTT.  $TTTT@sTTTTTTa+         ",
"r               fTTTl   ZTTT.     &TTTF         <TTTc   BTTT1       XTTTTX  ;TTTATTTTTTTTTT>        ",
"r              4TTTH.   ZTTTX     =TTTZ         :TTTm   8TTTT$     X7TTTTX  1TTTTTTTTTTTTTTT&       ",
"r             =TTTT@    ZTTT.     -TTTm         -TTTB   OTTTTTh6>4cTTTTTTX  3TTTTTB3&*2zTTTTB       ",
"r            +TTTT-     ZTTT.     =TTTC         :TTTn    6TTTTTTTTTTTTTTT.  3TTTc#      :TTTT+      ",
"r           .ATTT5      ZTTT.     %TTTD         <TTTz     7TTTTTTTTTDTTTT   <TTTm        nTTT<      ",
"r           gTTTgoooooooZTTTooo   #TTTT         7TTTd      #gTTTTTl-*TTTK   ;TTTC        8TTT7      ",
"r           TTTTTTTTTTTTTTTTTTT&  XTTTT.        gTTT5         XOo   5TTTh   $TTTT        :TTTa      ",
"r           TTTTTTTTTTTTTTTTTTT&   TTTT%        KTTT=               bTTT1   XTTTTX       >TTT9      ",
"r           TTTTTTTTTTTTTTTTTTT&   zTTT8       +TTTTo              OTTTTO    LTTT=       0TTT3      ",
"r           ,,,,,,,,,,,,ZTTT,,,o   <TTTTX      0TTTZ      %X       dTTTm     qTTTb       PTTT$      ",
"r                       ZTTT.      XTTTTh     ;TTTT<     oTS@     4TTTT=     #TTTT1     8TTTY       ",
"r                       ZTTT.       6TTTTJ3-<zTTTTJ      MTTTg<:4ZTTTTj       kTTTTn2:4ZTTTT1       ",
"r                       ZTTTX        zTTTTTTTTTTTT$     3TTTTTTTTTTTTC.       oLTTTTTTTTTTTj        ",
"r                       ZTTT.        .hTTTTTTTTTL&       ,TTTTTTTTTTg.         @CTTTTTTTTTw         ",
"r                       fhhh.          -jTTTTTV4          X5VTTTTTg&             1MTTTTTg#          ",
"r                                         X+o.               .XOX                  .XoX             ",
"r                                                                                                   ",
"r                                                                                                   ",
"r                                                                                                   ",
"r                                                                                                   ",
"u                                                                                                   ",
"i                                                                                                   ",
"x                                                                                                   ",
"b                                                                                                   ",
"v                                                                                                   "
};
