/* XPM */
static char *_121668269777[] = {
/* columns rows colors chars-per-pixel */
"100 100 50 1 ",
"  c #EDC850",
". c #EECA56",
"X c #EECB5A",
"o c #EECC5B",
"O c #EECC5C",
"+ c #EFCE63",
"@ c #EFCF67",
"# c #EFCF68",
"$ c #F0D06A",
"% c #F0D16C",
"& c #F1D373",
"* c #F1D374",
"= c #F1D476",
"- c #F1D578",
"; c #F2D67D",
": c #F2D780",
"> c #F2D883",
", c #F2D884",
"< c #F3DA8A",
"1 c #F3DC8E",
"2 c #F3DC8F",
"3 c #F4DD93",
"4 c #F4DD94",
"5 c #F4DF99",
"6 c #F5E09C",
"7 c #F6E2A3",
"8 c #F6E3A5",
"9 c #F6E4AA",
"0 c #F7E6AE",
"q c #F7E6B0",
"w c #F7E7B3",
"e c #F7E8B6",
"r c #F8E8B7",
"t c #F8E9B9",
"y c #F8EBBF",
"u c #F9EBC0",
"i c #F9ECC4",
"p c #F9EEC8",
"a c #FAF1D1",
"s c #FBF3D8",
"d c #FBF4DB",
"f c #FCF5E0",
"g c #FCF6E4",
"h c #FDF8EA",
"j c #FDFAEF",
"k c #FEFBF1",
"l c #FEFCF4",
"z c #FEFCF5",
"x c #FFFEFB",
"c c #FFFFFF",
/* pixels */
"ccczy1                                                                                         1yzcc",
"cca                                                                                               ac",
"ca                                                                                                 a",
"z                                                                                                   ",
"y                                                                                                   ",
"1                                                                                                   ",
"                                                                                                    ",
"                                                                                                    ",
"                                                                                                    ",
"                                                                                                    ",
"                                                                                                    ",
"                                                                                                    ",
"                                                                                                    ",
"                                                                                                    ",
"                                                                                                    ",
"                                                                                                    ",
"                                                                                                    ",
"                                                                                                    ",
"                                                                                                    ",
"                                                                                                    ",
"                                                                                                    ",
"                                                                                                    ",
"                                                                                                    ",
"                                                                                                    ",
"                                                                                                    ",
"                                                                                                    ",
"                                                                                                    ",
"                                                                                                    ",
"                                                                                                    ",
"                                                                                                    ",
"                                                                                                    ",
"                                                                                                    ",
"                                                                            .XO.                    ",
"                O65556555655565555                 -5565                 -rcccccch9@                ",
"                &ccccccccccccccccc.                icccc.              ;cccccccccccciX              ",
"                ;ccccccccccccccccc.               .ccccc              8ccccccccccccccc@             ",
"                3ccccccccccccccccc.               <ccccc             7cccccccccccccccccO            ",
"                9ccccccccccccccccc.              @cccccc.           -cccccccccccccccccct            ",
"                iccccppppppppppppp.           .$8ccccccc           .ccccccc9@. O1ccccccco           ",
"                fcccc6                     skccccccccccc            1ccccc&      +cccccc,           ",
"                ccccc,                     zcccccccccccc.            oycc*        3ccccc8           ",
"                ccccc&                     zcccccccccccc               *5         $cccccy           ",
"               .ccccc+                     zcccccccccccc.                         #cccccu           ",
"               +ccccc.                     0qq00qqqccccc                          -ccccc9           ",
"               $ccccc.@=;-%O                      qccccc                          qccccc,           ",
"               ;cccczcccccccc7O                   qccccc.                        Xcccccc@           ",
"               1ccccccccccccccc3                  eccccc                         qcccccj            ",
"               8cccccccccccccccc0                 qccccc                        ;cccccc:            ",
"               yccccccccccccccccc3                eccccc                       @ccccccd             ",
"               dcccccsq7qgcccccccc.               qccccc.                     +ccccccc+             ",
"               cccc;.     Oycccccc3               qccccc                     Oxcccccc=              ",
"               XXX          eccccca               qccccc                    Oxcccccc<               ",
"                            Occcccc               eccccc.                  +ccccccc1                ",
"                             jccccc.              qccccc                  #ccccccc3                 ",
"                             acccccX              rccccc                 &ccccccc:                  ",
"                             gccccc.              qccccc.               :ccccccc%                   ",
"                             cccccc               qccccc               4ccccccfO                    ",
"                .8.         &cccccf               qccccc.             9ccccccq.                     ",
"               =ccp         hccccc6               eccccc            .pcccccc<                       ",
"             Oyccccf#     @scccccc+               qccccc           .hcccccc*****=*******&%          ",
"             6ccccccchq8tjcccccccy                eccccc.          .cccccccccccccccccccccy          ",
"              hccccccccccccccccccO                0ccccc            cccccccccccccccccccccy          ",
"              Ozcccccccccccccccc%                 rccccc           .cccccccccccccccccccccy          ",
"               .yccccccccccccch@                  qccccc.          .cccccccccccccccccccccy          ",
"                 %pcccccccccf>                    qccccc           .cccccccccccccccccccccy          ",
"                   .$,465,&X                                                                        ",
"                                                                                                    ",
"                                                                                                    ",
"                                                                                                    ",
"                                                                                                    ",
"                                                                                                    ",
"                                                                                                    ",
"                                                                                                    ",
"                                                                                                    ",
"                                                                                                    ",
"                                                                                                    ",
"                                                                                                    ",
"                                                                                                    ",
"                                                                                                    ",
"                                                                                                    ",
"                                                                                                    ",
"                                                                                                    ",
"                                                                                                    ",
"                                                                                                    ",
"                                                                                                    ",
"                                                                                                    ",
"                                                                                                    ",
"                                                                                                    ",
"                                                                                                    ",
"                                                                                                    ",
"                                                                                                    ",
"                                                                                                    ",
"                                                                                                    ",
"                                                                                                    ",
"                                                                                                    ",
"1                                                                                                   ",
"y                                                                                                   ",
"z                                                                                                   ",
"ca                                                                                                 a",
"cca                                                                                               ac"
};
