/* XPM */
static char *_41668269776[] = {
/* columns rows colors chars-per-pixel */
"100 100 71 1 ",
"  c #F65E3B",
". c #F65F3C",
"X c #F6613E",
"o c #F66341",
"O c #F66442",
"+ c #F66746",
"@ c #F76A4A",
"# c #F76C4D",
"$ c #F76F50",
"% c #F77051",
"& c #F77355",
"* c #F77456",
"= c #F77658",
"- c #F87A5D",
"; c #F87E62",
": c #F88064",
"> c #F88368",
", c #F88469",
"< c #F8886E",
"1 c #F98B72",
"2 c #F98C73",
"3 c #F98F77",
"4 c #F9927A",
"5 c #F9957E",
"6 c #F99781",
"7 c #F99982",
"8 c #F99A84",
"9 c #F99C87",
"0 c #FA9E89",
"q c #FAA38F",
"w c #FAA793",
"e c #FAA794",
"r c #FAA997",
"t c #FAAB99",
"y c #FAAD9B",
"u c #FAAE9D",
"i c #FBB1A0",
"p c #FBB2A1",
"a c #FBB4A4",
"s c #FBB9AA",
"d c #FBBBAC",
"f c #FBBDAF",
"g c #FBBFB1",
"h c #FBC0B2",
"j c #FCC1B4",
"k c #FCC4B7",
"l c #FCC5B8",
"z c #FCCABE",
"x c #FCCDC2",
"c c #FCCFC5",
"v c #FCD1C7",
"b c #FCD2C8",
"n c #FDD5CC",
"m c #FDD8CF",
"M c #FDDCD4",
"N c #FDDDD6",
"B c #FDDFD8",
"V c #FDE1DB",
"C c #FDE2DC",
"Z c #FEE5DF",
"A c #FEE7E1",
"S c #FEE8E2",
"D c #FEEDE9",
"F c #FEEEEA",
"G c #FEEFEC",
"H c #FEF1EE",
"J c #FEF5F3",
"K c #FEF6F4",
"L c #FFF9F7",
"P c #FFFCFB",
"I c white",
/* pixels */
"IIIKk6                                                                                         6kJII",
"IIn                                                                                               nI",
"In                                                                                                 n",
"K                                                                                                   ",
"k                                                                                                   ",
"6                                                                                                   ",
"                                                                                                    ",
"                                                                                                    ",
"                                                                                                    ",
"                                                                                                    ",
"                                                                                                    ",
"                                                                                                    ",
"                                                                                                    ",
"                                                                                                    ",
"                                                                                                    ",
"                                                                                                    ",
"                                                                                                    ",
"                                                                                                    ",
"                                                                                                    ",
"                                                                                                    ",
"                                                                                                    ",
"                                                                                                    ",
"                                                                                                    ",
"                                                                                                    ",
"                                                                                                    ",
"                                                                                                    ",
"                                                                                                    ",
"                                o*<454:$X                                                           ",
"                             X1NIIIIIIIIIj-                          .;cccccx                       ",
"                            <IIIIIIIIIIIIIIb%                        @IIIIIIG                       ",
"                          .aIIIIIIIIIIIIIIIII2                      XZIIIIIIG                       ",
"                         .lIIIIIIIIIIIIIIIIIII7                     dIIIIIIIG                       ",
"                        .iIIIIIIIIIIIIIIIIIIII,                    7IIIIIIIIG                       ",
"                        1IIIIIIIIIndylIIIIIII9                    ;IIIIIIIIIG                       ",
"                       OIIIIIIIIu+    .1IIIId                    #IIIIIIIIIIG                       ",
"                       wIIIIIII2        +lIVX                   XZIIIIIIIIIIG                       ",
"                      oIIIIIIIq           0@                    dIIIIIIIIIIIG                       ",
"                      3IIIIIIIX                                7IIIIIIAIIIIIG                       ",
"                      mIIIIII9                                ;IIIIIIiZIIIIIG                       ",
"                     oIIIIIII@                               #IIIIIINXAIIIIIG                       ",
"                     -IIIIIIJ                               XAIIIIII@ ZIIIIIG                       ",
"                     8IIIIIIa  X&3raar4&.                   fIIIIII-  AIIIIIG                       ",
"                     gIIIIII4%sIIIIIIIIIIu@                8IIIIII5   AIIIIIG                       ",
"                     AIIIIIIiIIIIIIIIIIIIII8              ;IIIIIIs    ZIIIIIG                       ",
"                     IIIIIIIIIIIIIIIIIIIIIIIf.           #IIIIIIZX    ZIIIIIG                       ",
"                    .IIIIIIIIIIIIIIIIIIIIIIIIi          XAIIIIII#     ZIIIIIG                       ",
"                    XIIIIIIIIIIIIIIIIIIIIIIIII;        .fIIIIII:      AIIIIIG                       ",
"                    oIIIIIIIIIIIxw7yvPIIIIIIIIZ        8IIIIII9       AIIIIIG                       ",
"                    oIIIIIIIIl;X     .4IIIIIIII&      :IIIIIIh        AIIIIIG                       ",
"                    oIIIIIII$         .%IIIIIII0    .#IIIIIIFo        ZIIIIIG                       ",
"                    .IIIIIII@.          uIIIIIIx    XSIIIIII#         AIIIIIG                       ",
"                     IIIIIII#           #IIIIIIL    fIIIIII,.         ZIIIIIF                       ",
"                     JIIIIII=           oIIIIIII.  7IIIIIIttytttttttttZIIIIIFytttt                  ",
"                     bIIIIII,            IIIIIIIX  wIIIIIIIIIIIIIIIIIIIIIIIIIIIIIL                  ",
"                     uIIIIII0            PIIIIII.  wIIIIIIIIIIIIIIIIIIIIIIIIIIIIIL                  ",
"                     2IIIIIIx.           IIIIIII.  wIIIIIIIIIIIIIIIIIIIIIIIIIIIIIL                  ",
"                     #IIIIIIIX          +IIIIIIF   wIIIIIIIIIIIIIIIIIIIIIIIIIIIIIL                  ",
"                     XIIIIIII:          >IIIIIIf   wIIIIIIIIIIIIIIIIIIIIIIIIIIIIIL                  ",
"                      aIIIIIIC.         bIIIIII3   :666566656666666656AIIIIIF66666                  ",
"                      -IIIIIIIt        5IIIIIII@                      AIIIIIG                       ",
"                       AIIIIIIIk#    @aIIIIIIIz                       ZIIIIIH                       ",
"                       ;IIIIIIIIIPNBPIIIIIIIII%                       ZIIIIIF                       ",
"                        dIIIIIIIIIIIIIIIIIIIIq                        AIIIIIH                       ",
"                        oAIIIIIIIIIIIIIIIIIIg                         AIIIIIF                       ",
"                         +NIIIIIIIIIIIIIIIIi.                         AIIIIIF                       ",
"                          .qIIIIIIIIIIIIIH:                           ZIIIIIG                       ",
"                            +8VIIIIIIIIf;..                           weerere                       ",
"                               o#=;-%+. .                                                           ",
"                                                                                                    ",
"                                                                                                    ",
"                                                                                                    ",
"                                                                                                    ",
"                                                                                                    ",
"                                                                                                    ",
"                                                                                                    ",
"                                                                                                    ",
"                                                                                                    ",
"                                                                                                    ",
"                                                                                                    ",
"                                                                                                    ",
"                                                                                                    ",
"                                                                                                    ",
"                                                                                                    ",
"                                                                                                    ",
"                                                                                                    ",
"                                                                                                    ",
"                                                                                                    ",
"                                                                                                    ",
"                                                                                                    ",
"                                                                                                    ",
"                                                                                                    ",
"                                                                                                    ",
"                                                                                                    ",
"                                                                                                    ",
"                                                                                                    ",
"6                                                                                                   ",
"k                                                                                                   ",
"J                                                                                                   ",
"In                                                                                                 n",
"IIn                                                                                               nI"
};
