/* XPM */
static char *_1668269775[] = {
/* columns rows colors chars-per-pixel */
"100 100 47 1 ",
"  c #F2B179",
". c #F2B37C",
"X c #F3B47E",
"o c #F3B580",
"O c #F3B986",
"+ c #F3BA88",
"@ c #F4BB8A",
"# c #F4BC8B",
"$ c #F4BE8F",
"% c #F4BE90",
"& c #F4C093",
"* c #F5C297",
"= c #F5C398",
"- c #F5C59B",
"; c #F5C69C",
": c #F6C8A0",
"> c #F6CBA5",
", c #F7CDA9",
"< c #F7D0AF",
"1 c #F7D1B0",
"2 c #F8D2B2",
"3 c #F8D4B6",
"4 c #F8D6B8",
"5 c #F8D8BB",
"6 c #F9DABF",
"7 c #F9DBC1",
"8 c #F9DCC3",
"9 c #FADEC7",
"0 c #FADFC8",
"q c #FAE0CA",
"w c #FAE2CE",
"e c #FBE5D3",
"r c #FBE6D5",
"t c #FBE8D7",
"y c #FBE9DA",
"u c #FCEBDC",
"i c #FCECDE",
"p c #FCEEE1",
"a c #FDF1E7",
"s c #FDF3EB",
"d c #FDF5EE",
"f c #FEF7F1",
"g c #FEF7F2",
"h c #FEFAF7",
"j c #FEFBF8",
"k c #FEFCF9",
"l c #FFFFFF",
/* pixels */
"lllhw,                                                                                         ,wjll",
"llu                                                                                               ul",
"lu                                                                                                 u",
"h                                                                                                   ",
"w                                                                                                   ",
",                                                                                                   ",
"                                                                                                    ",
"                                                                                                    ",
"                                                                                                    ",
"                                                                                                    ",
"                                                                                                    ",
"                                                                                                    ",
"                                                                                                    ",
"                                                                                                    ",
"                                                                                                    ",
"                                                                                                    ",
"                                                                                                    ",
"                                                                                                    ",
"                                                                                                    ",
"                                                                                                    ",
"                                                                                                    ",
"                                                                                                    ",
"                                                                                                    ",
"                                                                                                    ",
"                                                                                                    ",
"                                                                                                    ",
"                                                                                                    ",
"                                            o=4ydllldt4*X                                           ",
"                                          $elllllllllllllw#                                         ",
"                                         7lllllllllllllllll5                                        ",
"                                       .rlllllllllllllllllllw                                       ",
"                                       qlllllllllllllllllllll6                                      ",
"                                      &lllllllllljskllllllllll$                                     ",
"                                      ylllllll2O     $wlllllll9                                     ",
"                                     .lllllll-         2lllllll                                     ",
"                                     $lllllle           hllllllo                                    ",
"                                     *llllll>           4llllll#                                    ",
"                                     :llllll;           1llllll%                                    ",
"                                     =llllll6           ellllll@                                    ",
"                                     Olllllll$         %lllllll.                                    ",
"                                      flllllll-       *lllllllw                                     ",
"                                      -llllllllwO   o8llllllll@                                     ",
"                                       wlllllllll5o3lllllllll1                                      ",
"                                       .ulllllllllllllllllll7                                       ",
"                                         6lllllllllllllllll<                                        ",
"                                          O8lllllllllllll6O                                         ",
"                                         .2llllllllllllllh-                                         ",
"                                        %llllllllllllllllllio                                       ",
"                                       ;lllllllllldllllllllll@                                      ",
"                                      *lllllllllr$ *dlllllllllo                                     ",
"                                      jlllllllf%     >llllllllr                                     ",
"                                     :lllllll9        oplllllll$                                    ",
"                                     slllllle          .allllllq                                    ",
"                                    .lllllllo           +lllllll                                    ",
"                                    Olllllle             allllllo                                   ",
"                                    @llllll2             0llllllo                                   ",
"                                    @llllll4             ellllllo                                   ",
"                                    olllllli             kllllllX                                   ",
"                                    .lllllll@           *lllllll                                    ",
"                                     rllllllho         @lllllll0                                    ",
"                                     :llllllll2+.   .@4llllllll%                                    ",
"                                      dllllllllllllllllllllllli                                     ",
"                                      %lllllllllllllllllllllllO                                     ",
"                                       *lllllllllllllllllllll$                                      ",
"                                        $jllllllllllllllllleo                                       ",
"                                          :fllllllllllllle%                                         ",
"                                            O;6ufllksr3*X                                           ",
"                                                                                                    ",
"                                                                                                    ",
"                                                                                                    ",
"                                                                                                    ",
"                                                                                                    ",
"                                                                                                    ",
"                                                                                                    ",
"                                                                                                    ",
"                                                                                                    ",
"                                                                                                    ",
"                                                                                                    ",
"                                                                                                    ",
"                                                                                                    ",
"                                                                                                    ",
"                                                                                                    ",
"                                                                                                    ",
"                                                                                                    ",
"                                                                                                    ",
"                                                                                                    ",
"                                                                                                    ",
"                                                                                                    ",
"                                                                                                    ",
"                                                                                                    ",
"                                                                                                    ",
"                                                                                                    ",
"                                                                                                    ",
"                                                                                                    ",
"                                                                                                    ",
",                                                                                                   ",
"w                                                                                                   ",
"h                                                                                                   ",
"lu                                                                                                 u",
"lly                                                                                               ul"
};
