/* XPM */
static char *_1921668269778[] = {
/* columns rows colors chars-per-pixel */
"100 100 74 1 ",
"  c #000000",
". c #060606",
"X c #0A0A0A",
"o c #0D0D0D",
"O c #131313",
"+ c #141414",
"@ c #191919",
"# c #1E1E1E",
"$ c #212121",
"% c #262626",
"& c #2A2A2A",
"* c #2F2F2F",
"= c #323232",
"- c #353535",
"; c #3B3B3B",
": c #3F3F3F",
"> c #404040",
", c #444444",
"< c #494949",
"1 c #4F4F4F",
"2 c #535353",
"3 c #545454",
"4 c #595959",
"5 c #5F5F5F",
"6 c #616161",
"7 c #676767",
"8 c #6B6B6B",
"9 c #6D6D6D",
"0 c #707070",
"q c #747474",
"w c #797979",
"e c #7D7D7D",
"r c #826B19",
"t c #A28520",
"y c #BD9A25",
"u c #EDC22E",
"i c #A79452",
"p c #AA9F7A",
"a c #F3D878",
"s c #808080",
"d c #878787",
"f c #898989",
"g c #8C8C8C",
"h c #919191",
"j c #959595",
"k c #9B9B9B",
"l c #9D9D9D",
"z c #A1A1A1",
"x c #A4A4A4",
"c c #AEACA6",
"v c #AAAAAA",
"b c #AEAEAE",
"n c #B0B0B0",
"m c #B5B5B5",
"M c #B8B8B8",
"N c #BCBCBC",
"B c #F8E9B2",
"V c #C2C2C2",
"C c #C6C6C6",
"Z c #CCCCCC",
"A c #CDCDCD",
"S c #D2D2D2",
"D c #D4D4D4",
"F c #D9D9D9",
"G c #DDDDDD",
"H c #FAEFC8",
"J c #E3E3E3",
"K c #E5E5E5",
"L c #EAEAEA",
"P c #EDEDED",
"I c #F5F5F5",
"U c #FEFBF3",
"Y c #FBFBFB",
"T c white",
/* pixels */
"TTTUBauuuuuuuuuuuuuuuuuuuuuuuuuuuuuuuuuuuuuuuuuuuuuuuuuuuuuuuuuuuuuuuuuuuuuuuuuuuuuuuuuuuuuuuuuaBUTT",
"TTHuuuuuuuuuuuuuuuuuuuuuuuuuuuuuuuuuuuuuuuuuuuuuuuuuuuuuuuuuuuuuuuuuuuuuuuuuuuuuuuuuuuuuuuuuuuuuuuHT",
"THuuuuuuuuuuuuuuuuuuuuuuuuuuuuuuuuuuuuuuuuuuuuuuuuuuuuuuuuuuuuuuuuuuuuuuuuuuuuuuuuuuuuuuuuuuuuuuuuuH",
"Uuuuuuuuuuuuuuuuuuuuuuuuuuuuuuuuuuuuuuuuuuuuuuuuuuuuuuuuuuuuuuuuuuuuuuuuuuuuuuuuuuuuuuuuuuuuuuuuuuuu",
"Buuuuuuuuuuuuuuuuuuuuuuuuuuuuuuuuuuuuuuuuuuuuuuuuuuuuuuuuuuuuuuuuuuuuuuuuuuuuuuuuuuuuuuuuuuuuuuuuuuu",
"auuuuuuuuuuuuuuuuuuuuuuuuuuuuuuuuuuuuuuuuuuuuuuuuuuuuuuuuuuuuuuuuuuuuuuuuuuuuuuuuuuuuuuuuuuuuuuuuuuu",
"uuuuuuuuuuuuuuuuuuuuuuuuuuuuuuuuuuuuuuuuuuuuuuuuuuuuuuuuuuuuuuuuuuuuuuuuuuuuuuuuuuuuuuuuuuuuuuuuuuuu",
"uuuuuuuuuuuuuuuuuuuuuuuuuuuuuuuuuuuuuuuuuuuuuuuuuuuuuuuuuuuuuuuuuuuuuuuuuuuuuuuuuuuuuuuuuuuuuuuuuuuu",
"uuuuuuuuuuuuuuuuuuuuuuuuuuuuuuuuuuuuuuuuuuuuuuuuuuuuuuuuuuuuuuuuuuuuuuuuuuuuuuuuuuuuuuuuuuuuuuuuuuuu",
"uuuuuuuuuuuuuuuuuuuuuuuuuuuuuuuuuuuuuuuuuuuuuuuuuuuuuuuuuuuuuuuuuuuuuuuuuuuuuuuuuuuuuuuuuuuuuuuuuuuu",
"uuuuuuuuuuuuuuuuuuuuuuuuuuuuuuuuuuuuuuuuuuuuuuuuuuuuuuuuuuuuuuuuuuuuuuuuuuuuuuuuuuuuuuuuuuuuuuuuuuuu",
"uuuuuuuuuuuuuuuuuuuuuuuuuuuuuuuuuuuuuuuuuuuuuuuuuuuuuuuuuuuuuuuuuuuuuuuuuuuuuuuuuuuuuuuuuuuuuuuuuuuu",
"uuuuuuuuuuuuuuuuuuuuuuuuuuuuuuuuuuuuuuuuuuuuuuuuuuuuuuuuuuuuuuuuuuuuuuuuuuuuuuuuuuuuuuuuuuuuuuuuuuuu",
"uuuuuuuuuuuuuuuuuuuuuuuuuuuuuuuuuuuuuuuuuuuuuuuuuuuuuuuuuuuuuuuuuuuuuuuuuuuuuuuuuuuuuuuuuuuuuuuuuuuu",
"uuuuuuuuuuuuuuuuuuuuuuuuuuuuuuuuuuuuuuuuuuuuuuuuuuuuuuuuuuuuuuuuuuuuuuuuuuuuuuuuuuuuuuuuuuuuuuuuuuuu",
"uuuuuuuuuuuuuuuuuuuuuuuuuuuuuuuuuuuuuuuuuuuuuuuuuuuuuuuuuuuuuuuuuuuuuuuuuuuuuuuuuuuuuuuuuuuuuuuuuuuu",
"uuuuuuuuuuuuuuuuuuuuuuuuuuuuuuuuuuuuuuuuuuuuuuuuuuuuuuuuuuuuuuuuuuuuuuuuuuuuuuuuuuuuuuuuuuuuuuuuuuuu",
"uuuuuuuuuuuuuuuuuuuuuuuuuuuuuuuuuuuuuuuuuuuuuuuuuuuuuuuuuuuuuuuuuuuuuuuuuuuuuuuuuuuuuuuuuuuuuuuuuuuu",
"uuuuuuuuuuuuuuuuuuuuuuuuuuuuuuuuuuuuuuuuuuuuuuuuuuuuuuuuuuuuuuuuuuuuuuuuuuuuuuuuuuuuuuuuuuuuuuuuuuuu",
"uuuuuuuuuuuuuuuuuuuuuuuuuuuuuuuuuuuuuuuuuuuuuuuuuuuuuuuuuuuuuuuuuuuuuuuuuuuuuuuuuuuuuuuuuuuuuuuuuuuu",
"uuuuuuuuuuuuuuuuuuuuuuuuuuuuuuuuuuuuuuuuuuuuuuuuuuuuuuuuuuuuuuuuuuuuuuuuuuuuuuuuuuuuuuuuuuuuuuuuuuuu",
"uuuuuuuuuuuuuuuuuuuuuuuuuuuuuuuuuuuuuuuuuuuuuuuuuuuuuuuuuuuuuuuuuuuuuuuuuuuuuuuuuuuuuuuuuuuuuuuuuuuu",
"uuuuuuuuuuuuuuuuuuuuuuuuuuuuuuuuuuuuuuuuuuuuuuuuuuuuuuuuuuuuuuuuuuuuuuuuuuuuuuuuuuuuuuuuuuuuuuuuuuuu",
"uuuuuuuuuuuuuuuuuuuuuuuuuuuuuuuuuuuuuuuuuuuuuuuuuuuuuuuuuuuuuuuuuuuuuuuuuuuuuuuuuuuuuuuuuuuuuuuuuuuu",
"uuuuuuuuuuuuuuuuuuuuuuuuuuuuuuuuuuuuuuuuuuuuuuuuuuuuuuuuuuuuuuuuuuuuuuuuuuuuuuuuuuuuuuuuuuuuuuuuuuuu",
"uuuuuuuuuuuuuuuuuuuuuuuuuuuuuuuuuuuuuuuuuuuuuuuuuuuuuuuuuuuuuuuuuuuuuuuuuuuuuuuuuuuuuuuuuuuuuuuuuuuu",
"uuuuuuuuuuuuuuuuuuuuuuuuuuuuuuuuuuuuuuuuuuuuuuuuuuuuuuuuuuuuuuuuuuuuuuuuuuuuuuuuuuuuuuuuuuuuuuuuuuuu",
"uuuuuuuuuuuuuuuuuuuuuuuuuuuuuuuuuuuuuuuuuuuuuuuuuuuuuuuuuuuuuuuuuuuuuuuuuuuuuuuuuuuuuuuuuuuuuuuuuuuu",
"yrrrrrrrrrrrrrrrrrrrrrrrrrrrrrrrrrrrrrrrrrrrrrrrrrrrrrrrrrrrrrrrrrrrrrrrrrrrrrrrrrrrrrrrrrrrrrrrrrrr",
"t                                                                                                   ",
"t                                                                                                   ",
"t                                                                                                   ",
"t                                                                                                   ",
"t                                                                                                   ",
"t                                                                                                   ",
"t                                                                                                   ",
"t                                                                                                   ",
"t                                                                                                   ",
"t                                                                                                   ",
"t                                                                                                   ",
"t                                                                                                   ",
"t                                                                                                   ",
"t                                                                                                   ",
"t                                                                                                   ",
"t                                                                                                   ",
"t                                                                                                   ",
"t                                                                                                   ",
"t                                                                                                   ",
"t                                                                                                   ",
"t                                                                                                   ",
"t                                                                                                   ",
"t                                                                                                   ",
"t                                                                                                   ",
"t                                                                                                   ",
"t                                                                                                   ",
"t                                                                                                   ",
"t                                                                                                   ",
"t                                                                                                   ",
"t                                                                                                   ",
"t                                                                                                   ",
"t                                                                                                   ",
"t                                                                                                   ",
"t                                                                                                   ",
"t                                                                                                   ",
"t                                                                                                   ",
"t                 .#:12,&X                                   $:3,=o              @;22>#.            ",
"t               odTTTTTTTTn%               FTT%           X9TTTTTTTV$         .6TTTTTTTT0.          ",
"t              %TTTTTTTTTTTT4             +TTT%          #PTTTTTTTTTT3       +JTTTTTTTTTTI+         ",
"t             XTTTTTTLKTTTTTT=            eTTT%         XYTTTTTTTTTTTT;     oYTTTTTTTTTTTTP         ",
"t             9TTTT=    $ATTTS          .6TTTT%         dTTTT6+.X>TTTTY     lTTTTl*oo*mTTTT4        ",
"t             KTTT*      oTTTTo     +4qnTTTTTT%        oTTTT*     #TTTT:    <TTT5      zTTTC        ",
"t             TTTT        NTTT@     =TTTTTTTTT%        -TTTx       0TTTb     okf       %TTTT        ",
"t             TTTT.       VTTT@     =TTTTTTTTT%        7TTT1       @TTTT               oTTTT.       ",
"t             CTTT7      *TTTT.     #99999sTTT%        eTTT*        TTTT+              +TTTT        ",
"t             >TTTTho   1TTTTq            sTTT%        sTTT;        LTTT&              >TTTD        ",
"t              gTTTTT9>GTTTTA.            sTTT%        8TTT6        ATTT:              ATTT9        ",
"t               9TTTTTTTTTTl.             sTTT$        ;TTTP        MTTT<             2TTTT+        ",
"t                #zTTTTTTA-               sTTT%        OTTTTdo    O9TTTT2            %TTTTe         ",
"t               hTTTTTTTTTTvo             sTTT%         hTTTTTCghFTTTTTT,           +TTTTD.         ",
"t             .bTTTTT5>LTTTTTO            sTTT%         oITTTTTTTTTTTTTT:          +YTTTTO          ",
"t             8TTTT9.   2TTTTA            sTTT$          OMTTTTTTTTDPTTT%         +YTTTT#           ",
"t            oTTTT,      $TTTT-           sTTT%            *dJTTFs% TTTT+        #TTTTT$            ",
"t            =TTTx        2TTTf           sTTT%                    @TTTT        &TTTTI@             ",
"t            3TTT<        +TTTN           sTTT%                    3TTTn       :TTTTSo              ",
"t            5TTT<        +TTTM           sTTT%                    FTTT1      4TTTTv.               ",
"t            >TTTl        3TTTh           sTTT%          O2       <TTTTX     wTTTTd                 ",
"t            OTTTT<      &TTTT;           dTTT%          VTqX    <TTTT8     xTTTT5@@@@@@@@@@@       ",
"t             hTTTTF01<5bTTTTL            sTTT%         dTTTTlwjTTTTTS.     PTTTTTTTTTTTTTTTA       ",
"t             oJTTTTTTTTTTTTT%            sTTT%        XJTTTTTTTTTTTP+      PTTTTTTTTTTTTTTTA       ",
"t              ohTTTTTTTTTTn@             sTTT%         .fTTTTTTTTTjX       LTTTTTTTTTTTTTTTA       ",
"t                +7vPTTIm9#               ;111o           O4mPTTCq@         12111112111111111       ",
"t                                                                                                   ",
"t                                                                                                   ",
"t                                                                                                   ",
"t                                                                                                   ",
"i                                                                                                   ",
"p                                                                                                   ",
"c                                                                                                   ",
"b                                                                                                   ",
"n                                                                                                   "
};
